<svg width="342" height="256" viewBox="0 0 342 256" fill="none" xmlns="http://www.w3.org/2000/svg">
<path d="M304.333 0H123C118.627 0 114.445 1.792 111.416 4.94933L4.74931 116.949C-1.13869 123.136 -1.13869 132.843 4.74931 139.029L111.416 251.029C114.445 254.208 118.627 256 123 256H304.333C324.92 256 341.667 239.253 341.667 218.667V37.3333C341.667 16.7467 324.92 0 304.333 0ZM278.307 159.36C284.557 165.611 284.557 175.744 278.307 181.995C275.192 185.109 271.096 186.688 267 186.688C262.904 186.688 258.808 185.131 255.693 181.995L224.333 150.635L192.973 181.995C189.859 185.109 185.763 186.688 181.667 186.688C177.571 186.688 173.475 185.131 170.36 181.995C164.109 175.744 164.109 165.611 170.36 159.36L201.72 128L170.36 96.64C164.109 90.3893 164.109 80.256 170.36 74.0053C176.611 67.7547 186.744 67.7547 192.995 74.0053L224.355 105.365L255.715 74.0053C261.965 67.7547 272.099 67.7547 278.349 74.0053C284.6 80.256 284.6 90.3893 278.349 96.64L246.968 128L278.307 159.36Z" fill="white"/>
</svg>
